<svg xmlns="http://www.w3.org/2000/svg" xmlns:xlink="http://www.w3.org/1999/xlink" width="57.424" height="61.992" viewBox="0 0 57.424 61.992"><defs><style>.a{fill:#e5dfd8;}.b{filter:url(#c);}.c{filter:url(#a);}</style><filter id="a" x="0" y="30.864" width="57.424" height="31.128" filterUnits="userSpaceOnUse"><feOffset dx="0.2" dy="0.2" input="SourceAlpha"/><feGaussianBlur result="b"/><feFlood flood-opacity="0.102"/><feComposite operator="in" in2="b"/><feComposite in="SourceGraphic"/></filter><filter id="c" x="0" y="0" width="57.424" height="31.128" filterUnits="userSpaceOnUse"><feOffset dx="0.2" dy="0.2" input="SourceAlpha"/><feGaussianBlur result="d"/><feFlood flood-opacity="0.102"/><feComposite operator="in" in2="d"/><feComposite in="SourceGraphic"/></filter></defs><g transform="translate(-927.669 -943.208)"><g transform="translate(927.669 1005) rotate(-90)"><g class="c" transform="matrix(0, 1, -1, 0, 61.79, 0)"><path class="a" d="M7.559,28.612,29.841,6.329A3.707,3.707,0,0,0,24.6,1.087L2.316,23.37S0,25.991,0,28.612s2.316,5.242,2.316,5.242L24.6,56.137A3.707,3.707,0,0,0,29.841,50.9Zm0,0" transform="translate(0 61.79) rotate(-90)"/></g></g><g transform="translate(927.669 974.136) rotate(-90)"><g class="b" transform="matrix(0, 1, -1, 0, 30.93, 0)"><path class="a" d="M7.559,28.612,29.841,6.329A3.707,3.707,0,0,0,24.6,1.087L2.316,23.37S0,25.991,0,28.612s2.316,5.242,2.316,5.242L24.6,56.137A3.707,3.707,0,0,0,29.841,50.9Zm0,0" transform="translate(0 30.93) rotate(-90)"/></g></g></g></svg>