<svg id="Layer_1" data-name="Layer 1" xmlns="http://www.w3.org/2000/svg" viewBox="0 0 361.15 601.78"><defs><style>.cls-1{fill:#f1b242;}.cls-2{fill:#fff;}</style></defs><title>master-card</title><path class="cls-1" d="M345.37,605.4a18.68,18.68,0,0,1-3.8.36h-114l-71.77-.06h-21.9l-.09,0-26.48.05L2.58,562.52l.08-92.23V447.67L2.78,26A21.84,21.84,0,0,1,24.5,4h.21L85,4,185.42,4,280,4l61.63,0a21.77,21.77,0,0,1,20.66,14.6,18.91,18.91,0,0,1,1.38,7.47l0,66.41-.05,80.59-.06,328.7v81.93A22.05,22.05,0,0,1,345.37,605.4Z" transform="translate(-2.58 -3.98)"/><path class="cls-2" d="M43.11,141,18,136.82l.29-6.18,18-4.35-17.47-6,.29-6.11,25.37-1.82-.3,6.35-16.32,1.16.08-1,16,4.74-.29,6.18L27.26,133l0-1.06,16.13,2.68Zm2-37.71a14.12,14.12,0,0,1-.26,1.94,6.69,6.69,0,0,1-.85,2.17,4.64,4.64,0,0,1-1.87,1.7,6.52,6.52,0,0,1-3.34.56L25.61,109a7.17,7.17,0,0,1-3-.72,5.07,5.07,0,0,1-1.85-1.59,5.91,5.91,0,0,1-.89-2.08,9,9,0,0,1-.18-2.19c.09-1.9.19-3.54.32-4.9s.24-2.55.35-3.56.24-1.89.37-2.65l5.57.26-.44,9.1a2,2,0,0,0,.31,1.31,1.38,1.38,0,0,0,1.1.49l2.11.1.77-9.11,5.23.25-.1,9.15,1.9.09a2.43,2.43,0,0,0,1-.14,1.36,1.36,0,0,0,.61-.5,1.6,1.6,0,0,0,.22-.74l.45-9.37,5.57.27c.09,1,.15,2.09.19,3.34s0,2.52,0,3.82S45.16,102.17,45.11,103.3Zm.7-18.88-19.32-.93-.3,6.35-5.91-.28.92-19.28,5.91.28-.3,6.35,19.31.92Zm.73-15.35-25.22-1.2.51-10.76a10.8,10.8,0,0,1,.55-3,5.79,5.79,0,0,1,1.49-2.34,6.31,6.31,0,0,1,2.67-1.46,12.83,12.83,0,0,1,4.14-.36,11.75,11.75,0,0,1,2.7.4,7.41,7.41,0,0,1,1.92.82,5.25,5.25,0,0,1,1.29,1.15,8.36,8.36,0,0,1,.88,1.39l10-3.92-.32,6.69-8.85,3.12-.12,2.51,8.68.41ZM32.93,61.82l.15-3a2.84,2.84,0,0,0-.11-1,1.78,1.78,0,0,0-.46-.72,2.12,2.12,0,0,0-.84-.47,5.49,5.49,0,0,0-1.27-.19,4.83,4.83,0,0,0-1.26.07,1.64,1.64,0,0,0-1.28,1.07,3,3,0,0,0-.18.94l-.14,3ZM48.26,37.2a19,19,0,0,1-.75,4.68,7.3,7.3,0,0,1-2,3.29,8.63,8.63,0,0,1-4,1.85,26.33,26.33,0,0,1-6.57.37,26.43,26.43,0,0,1-6.5-1,8.5,8.5,0,0,1-3.79-2.23,7.19,7.19,0,0,1-1.73-3.46A18.77,18.77,0,0,1,22.6,36a18.59,18.59,0,0,1,.75-4.68,7.21,7.21,0,0,1,2-3.28,8.46,8.46,0,0,1,4-1.86A25.81,25.81,0,0,1,36,25.8a26,26,0,0,1,6.5,1A8.53,8.53,0,0,1,46.24,29,7.24,7.24,0,0,1,48,32.48,18.66,18.66,0,0,1,48.26,37.2Zm-5.91-.28a6.07,6.07,0,0,0-.2-2.12,2.44,2.44,0,0,0-1-1.32,5.49,5.49,0,0,0-2.07-.75,26.71,26.71,0,0,0-3.45-.35,28.51,28.51,0,0,0-3.58,0,5.45,5.45,0,0,0-2.12.54,2.35,2.35,0,0,0-1.05,1.23,8,8,0,0,0-.2,4.19,2.32,2.32,0,0,0,.93,1.34,5.26,5.26,0,0,0,2.06.74,26.5,26.5,0,0,0,3.56.36,26.8,26.8,0,0,0,3.47,0,5.46,5.46,0,0,0,2.13-.55A2.46,2.46,0,0,0,42,39a6.35,6.35,0,0,0,.41-2.07Z" transform="translate(-2.58 -3.98)"/></svg>