<svg id="Layer_1" data-name="Layer 1" xmlns="http://www.w3.org/2000/svg" viewBox="0 0 361.13 601.76"><defs><style>.cls-1{fill:#70b756;}.cls-2{fill:#fff;}</style></defs><title>master-card</title><path class="cls-1" d="M342.67,605.5H248.8l-88.11-.06-.08,0-20.18.08-105.09,0-23.81-5.23A21.84,21.84,0,0,1,3.7,583.44l0-72.27,0-40.12L3.81,37.69l0-11.9a22,22,0,0,1,22-22h.07l80.52,0h89.55l83.58.12,63.26,0a21.91,21.91,0,0,1,14.46,5.39l.1,0a22.18,22.18,0,0,1,7.48,16.62l0,73.72-.15,379.88v104c0,.38,0,.86,0,1.25A22.05,22.05,0,0,1,342.67,605.5Z" transform="translate(-3.7 -3.76)"/><path class="cls-2" d="M44.26,194l-23.75-1,.43-10.13a10,10,0,0,1,.51-2.87,5.64,5.64,0,0,1,1.39-2.21,5.91,5.91,0,0,1,2.51-1.38,12.14,12.14,0,0,1,3.89-.36,10.89,10.89,0,0,1,2.54.36,6.9,6.9,0,0,1,1.81.77,4.8,4.8,0,0,1,1.22,1.07,7.79,7.79,0,0,1,.84,1.3L45,175.8l-.27,6.29-8.32,3-.1,2.37,8.18.34Zm-12.84-6.76.12-2.82a2.5,2.5,0,0,0-.11-.9,1.58,1.58,0,0,0-.43-.68,2.08,2.08,0,0,0-.8-.43,4.84,4.84,0,0,0-1.2-.18,4.69,4.69,0,0,0-1.18.08,1.58,1.58,0,0,0-.77.37,1.61,1.61,0,0,0-.43.63,3.05,3.05,0,0,0-.17.9L26.33,187Zm14.17-19.95a14.33,14.33,0,0,1-.24,1.83,6.41,6.41,0,0,1-.79,2,4.36,4.36,0,0,1-1.75,1.6,6.07,6.07,0,0,1-3.14.54l-12.41-.53a6.69,6.69,0,0,1-2.85-.66,4.84,4.84,0,0,1-1.75-1.49,5.21,5.21,0,0,1-.84-2,8.41,8.41,0,0,1-.19-2.06c.08-1.79.17-3.33.28-4.62s.21-2.4.32-3.34.22-1.78.33-2.5l5.24.22-.36,8.57a1.77,1.77,0,0,0,.3,1.22,1.28,1.28,0,0,0,1,.47l2,.08.69-8.58,4.92.21,0,8.61,1.79.07a2.19,2.19,0,0,0,.95-.13,1.21,1.21,0,0,0,.57-.48,1.53,1.53,0,0,0,.2-.69l.38-8.82,5.24.22c.09.92.15,2,.19,3.15s0,2.37,0,3.59S45.63,166.21,45.59,167.28Zm.52-16.89-24,4.42.27-6.42L37,146.06,22.69,141.9l.23-5.56,14.6-2.9L23.2,129.88l.27-6.42L47,129.91l-.27,6.2L32,139.52l14.34,4.67Zm1.07-25.12-23.44-8,.33-7.73,24-6-.27,6.42-3.81.8-.31,7.13,3.73,1.08Zm-9-9.12.18-4.25-9.23,1.75Zm10-14.59-23.74-1,.43-10.13a9.88,9.88,0,0,1,.51-2.86,5.39,5.39,0,0,1,1.39-2.22A6,6,0,0,1,29.29,84a12.14,12.14,0,0,1,3.89-.36,10.89,10.89,0,0,1,2.54.36,6.9,6.9,0,0,1,1.81.77,4.63,4.63,0,0,1,1.22,1.07,8.54,8.54,0,0,1,.85,1.3L49,83.37l-.27,6.3-8.32,3L40.28,95l8.18.35ZM35.35,94.8,35.47,92a2.55,2.55,0,0,0-.1-.91,1.6,1.6,0,0,0-.44-.67,2.06,2.06,0,0,0-.79-.44,4.84,4.84,0,0,0-1.2-.18,5.3,5.3,0,0,0-1.19.08,1.59,1.59,0,0,0-.76.37,1.65,1.65,0,0,0-.43.64,3,3,0,0,0-.17.89l-.12,2.81ZM49.07,81.1l-23.75-1,.45-10.48a8.75,8.75,0,0,1,1.09-4.22,6.74,6.74,0,0,1,2.65-2.51,11.28,11.28,0,0,1,3.84-1.18A27,27,0,0,1,38,61.51a20.41,20.41,0,0,1,6.75,1.24,7.36,7.36,0,0,1,3.72,3,8.63,8.63,0,0,1,1,4.86Zm-5.3-6.43L43.92,71a2.51,2.51,0,0,0-.56-1.86,3.76,3.76,0,0,0-2-1,19.14,19.14,0,0,0-3.61-.43,21.18,21.18,0,0,0-3.38.06,5.45,5.45,0,0,0-1.93.53,1.92,1.92,0,0,0-.88.92,3.65,3.65,0,0,0-.27,1.26l-.15,3.64Zm6.74-23c0,.7-.08,1.39-.15,2.06s-.16,1.32-.28,2-.23,1.26-.36,1.86-.29,1.16-.46,1.71l-4.92-.21c.09-.73.18-1.51.26-2.35s.14-1.69.21-2.55.1-1.67.13-2.41A8,8,0,0,0,44.86,50a2.24,2.24,0,0,0-.47-1.08,1.25,1.25,0,0,0-.94-.39l-.39,0A1.21,1.21,0,0,0,42,49a1.94,1.94,0,0,0-.41,1.15l-.07,1.7a8.5,8.5,0,0,1-1.87,5.56q-1.71,1.85-5.55,1.68L33,59a6.45,6.45,0,0,1-5.17-2.34,9.26,9.26,0,0,1-1.48-6.14,24.39,24.39,0,0,1,.26-2.83c.13-.88.29-1.7.46-2.48s.34-1.47.52-2.08l4.92.21c-.13,1-.24,2.08-.35,3.3S32,49,32,50a8.54,8.54,0,0,0,.06,1.6,2,2,0,0,0,.47,1.11,1.46,1.46,0,0,0,1.1.43l.32,0a1.48,1.48,0,0,0,1.24-.46,2.46,2.46,0,0,0,.48-1.55L35.74,49a7.36,7.36,0,0,1,1-3.69,5.57,5.57,0,0,1,2.39-2.14,7.1,7.1,0,0,1,3.34-.61l1.05,0a8.44,8.44,0,0,1,4.59,1.25,5.16,5.16,0,0,1,2,3.1A16.78,16.78,0,0,1,50.51,51.68Z" transform="translate(-3.7 -3.76)"/></svg>