<svg id="Layer_1" data-name="Layer 1" xmlns="http://www.w3.org/2000/svg" viewBox="0 0 362.46 602.3"><defs><style>.cls-1{fill:#e7927f;}.cls-2{fill:#0066b3;}.cls-3{fill:#faa634;}</style></defs><title>master-card</title><path class="cls-1" d="M366.46,26.89l-1.08,397.69L365.22,471l-.09,59.7L248.6,606.24l-18.41-.14-.09,0H207.33L140.06,606l-114-.3a16.53,16.53,0,0,1-3.71-.4A21.94,21.94,0,0,1,4,583.51l.19-81.78L5.1,171.06l.26-80.15.12-65a18.67,18.67,0,0,1,1.4-7.49A22,22,0,0,1,27.54,3.94l61.65.16H93l191.33.48,60.22.2A22.05,22.05,0,0,1,366.46,26.89Z" transform="translate(-4 -3.94)"/><path class="cls-2" d="M361.42,70.05v6.17l-23.69-3.88V66.17Z" transform="translate(-4 -3.94)"/><path class="cls-2" d="M337.71,81.39,354,87.28l-3.51.7h0L339.83,90A2.65,2.65,0,0,0,337.69,93v9.72l.4.12a23,23,0,0,1,2.72-6.46L361.39,91V84.59l-23.69-9.85Z" transform="translate(-4 -3.94)"/><path class="cls-2" d="M361.46,32.88V27.21l-23.71,4.91v5a2.83,2.83,0,0,0,1.77,2.85l21.92,9.23V42.72l-3.53-1.29V33.59Zm-8.39,6.78-8.86-3.26,8.86-1.81Z" transform="translate(-4 -3.94)"/><path class="cls-2" d="M343.44,48.66l-5.08-.89a17.89,17.89,0,0,0-1.05,5.55c0,3.06,1.33,10.34,7.84,10.35,6.12,0,6.21-8.53,9.43-8.53s2.63,7.66.59,10.18l5.32.92a17.14,17.14,0,0,0,1.35-7c0-4.21-2.17-10.57-8.1-10.57-6.16,0-6.75,8.6-9.43,8.6S342,51.3,343.44,48.66Z" transform="translate(-4 -3.94)"/><path class="cls-3" d="M350.49,88,339.83,90A2.65,2.65,0,0,0,337.69,93v9.72l.4.12a24,24,0,0,1,4.61-9.16A18.57,18.57,0,0,1,350.49,88Z" transform="translate(-4 -3.94)"/></svg>